<svg viewBox="-720 -407 1440 814" width="1440" height="814" style="background-color: rgb(255, 255, 255);" xmlns="http://www.w3.org/2000/svg"><path d="M-24.5193646130113,19.39532148415518L-27.328999784811813,18.519162695802937M-27.328999784811813,-88.36122560161913L-27.328999784811813,18.519162695802937M-27.328999784811813,18.519162695802937L-103.82533690532263,47.46195658800861M-24.5193646130113,-87.48506681326687L-24.5193646130113,19.39532148415518M-24.5193646130113,19.39532148415518L-101.0157017335221,48.33811537636087" style="fill:none;stroke:rgb(0,0,0);stroke-width:1;stroke-linecap:round"></path><path d="M-24.519364613011295,19.39532148415518L-27.32899978481181,18.519162695802933L-27.32899978481181,-88.36122560161911zM-103.8253369053226,47.46195658800862L-27.32899978481181,18.519162695802933L-24.519364613011295,19.39532148415518zM-24.519364613011295,-87.48506681326687L-24.519364613011295,19.39532148415518L-27.32899978481181,-88.36122560161911z" style="fill:rgb(238,238,238); fill-opacity: 0.4"></path><path d="M-24.5193646130113,-87.48506681326687L-27.328999784811813,-88.36122560161913M-27.328999784811813,-88.36122560161913L-103.82533690532263,-59.418431709413426M-24.5193646130113,-87.48506681326687L-101.0157017335221,-58.54227292106118" style="fill:none;stroke:rgb(0,0,0);stroke-width:1;stroke-linecap:round"></path><path d="M-101.0157017335221,48.33811537636086L-24.519364613011295,19.39532148415518L-24.519364613011295,-87.48506681326687z" style="fill:rgb(238,238,238); fill-opacity: 0.4"></path><path d="M165.74223088183103,78.12524226623441L29.417884345220426,35.61375341414753M29.417884345220426,-68.88961846916662L29.417884345220426,35.61375341414753M29.417884345220426,35.61375341414753L-45.37717668665392,63.912860496753815" style="fill:none;stroke:rgb(0,0,0);stroke-width:1;stroke-linecap:round"></path><path d="M-27.32899978481181,-88.36122560161911L-27.32899978481181,18.519162695802933L-103.8253369053226,-59.418431709413426zM-101.0157017335221,48.33811537636086L-103.8253369053226,47.46195658800862L-24.519364613011295,19.39532148415518zM-27.32899978481181,18.519162695802933L-103.8253369053226,47.46195658800862L-103.8253369053226,-59.418431709413426zM-101.0157017335221,-58.54227292106118L-24.519364613011295,-87.48506681326687L-27.32899978481181,-88.36122560161911z" style="fill:rgb(238,238,238); fill-opacity: 0.4"></path><path d="M-66.53842329543558,-30.10591123293604L-69.34805846723609,-30.982070021288287M-69.34805846723609,-52.36538845645233L-69.34805846723609,-30.982070021288287M-69.34805846723609,-30.982070021288287L-84.65250825291297,-25.191550468925445M-67.94324199402816,-51.92730982677483L-67.94324199402816,-30.543990541914052M-67.94324199402816,-30.543990541914052L-83.24769208377714,-24.753470874503925M-67.94324199402816,-30.543990541914052L-19.148712610178006,-20.409582716540818M-66.53842329543558,-51.48922966810008L-66.53842329543558,-30.10591123293604M-66.53842329543558,-30.10591123293604L-81.84287308111246,-24.315391680573203" style="fill:none;stroke:rgb(0,0,0);stroke-width:1;stroke-linecap:round"></path><path d="M-66.53842329543558,-30.10591123293604L-69.34805846723609,-30.982070021288287L-69.34805846723609,-52.36538845645233zM-84.65250825291297,-25.191550468925445L-69.34805846723609,-30.982070021288287L-66.53842329543558,-30.10591123293604zM-66.53842329543558,-51.48922966810008L-66.53842329543558,-30.10591123293604L-69.34805846723609,-52.36538845645233z" style="fill:rgb(153,221,255); fill-opacity: 0.4"></path><path d="M-66.53842329543558,-51.48922966810008L-69.34805846723609,-52.36538845645233M-69.34805846723609,-52.36538845645233L-84.65250825291297,-46.57486890408949M-67.94324199402816,-51.92730982677483L-83.24769208377714,-46.13679015936469M-67.94324199402816,-51.92730982677483L-19.148712610178006,-20.409582716540818" style="fill:none;stroke:rgb(0,0,0);stroke-width:1;stroke-linecap:round"></path><path d="M-67.94324088133584,-51.92730906227621L-67.94324088133584,-30.543990627112166L-83.2476906670127,-24.75347107474932z" style="fill:rgb(255,187,187); fill-opacity: 0.4"></path><path d="M-66.53842329543558,-51.48922966810008L-81.84287308111246,-45.69871011573724" style="fill:none;stroke:rgb(0,0,0);stroke-width:1;stroke-linecap:round"></path><path d="M-81.84287308111244,-24.315391680573196L-66.53842329543558,-30.10591123293604L-66.53842329543558,-51.48922966810008zM-69.34805846723609,-52.36538845645233L-69.34805846723609,-30.982070021288287L-84.65250825291297,-46.57486890408949z" style="fill:rgb(153,221,255); fill-opacity: 0.4"></path><path d="M-103.82533690532263,-59.418431709413426L-103.82533690532263,47.46195658800861M-103.82533690532263,47.46195658800861L-101.0157017335221,48.33811537636087" style="fill:none;stroke:rgb(0,0,0);stroke-width:1;stroke-linecap:round"></path><path d="M-81.84287308111244,-24.315391680573196L-84.65250825291297,-25.191550468925445L-66.53842329543558,-30.10591123293604zM-69.34805846723609,-30.982070021288287L-84.65250825291297,-25.191550468925445L-84.65250825291297,-46.57486890408949z" style="fill:rgb(153,221,255); fill-opacity: 0.4"></path><path d="M-101.0157017335221,-58.54227292106118L-101.0157017335221,48.33811537636086L-24.519364613011295,-87.48506681326687z" style="fill:rgb(238,238,238); fill-opacity: 0.4"></path><path d="M-101.0157017335221,-58.54227292106118L-101.0157017335221,48.33811537636087" style="fill:none;stroke:rgb(0,0,0);stroke-width:1;stroke-linecap:round"></path><path d="M-81.84287308111244,-45.69871011573724L-66.53842329543558,-51.48922966810008L-69.34805846723609,-52.36538845645233z" style="fill:rgb(153,221,255); fill-opacity: 0.4"></path><path d="M-84.65250825291297,-46.57486890408949L-84.65250825291297,-25.191550468925445M-84.65250825291297,-25.191550468925445L-81.84287308111246,-24.315391680573203" style="fill:none;stroke:rgb(0,0,0);stroke-width:1;stroke-linecap:round"></path><path d="M-67.94324088133584,-51.92730906227621L-83.2476906670127,-24.75347107474932L-83.2476906670127,-46.13678950991336z" style="fill:rgb(255,187,187); fill-opacity: 0.4"></path><path d="M-83.24769208377714,-24.753470874503925L-83.24769208377714,-46.13679015936469M-83.24769208377714,-24.753470874503925L-19.148712610178006,-20.409582716540818" style="fill:none;stroke:rgb(0,0,0);stroke-width:1;stroke-linecap:round"></path><path d="M-81.84287308111244,-45.69871011573724L-81.84287308111244,-24.315391680573196L-66.53842329543558,-51.48922966810008z" style="fill:rgb(153,221,255); fill-opacity: 0.4"></path><path d="M-81.84287308111246,-45.69871011573724L-81.84287308111246,-24.315391680573203" style="fill:none;stroke:rgb(0,0,0);stroke-width:1;stroke-linecap:round"></path><path d="M-84.65250825291297,-46.57486890408949L-81.84287308111244,-45.69871011573724L-69.34805846723609,-52.36538845645233zM-84.65250825291297,-25.191550468925445L-81.84287308111244,-24.315391680573196L-81.84287308111244,-45.69871011573724z" style="fill:rgb(153,221,255); fill-opacity: 0.4"></path><path d="M165.74223088183103,-26.37812961707975L29.417884345220426,-68.88961846916662M29.417884345220426,-68.88961846916662L-45.37717668665392,-40.590511386560344" style="fill:none;stroke:rgb(0,0,0);stroke-width:1;stroke-linecap:round"></path><path d="M-84.65250825291297,-46.57486890408949L-84.65250825291297,-25.191550468925445L-81.84287308111244,-45.69871011573724z" style="fill:rgb(153,221,255); fill-opacity: 0.4"></path><path d="M-67.94324088133584,-30.543990627112166L-67.94324088133584,-51.92730906227621L-19.148713138345787,-20.409582421019604z" style="fill:rgb(255,187,187); fill-opacity: 0.4"></path><path d="M-84.65250825291297,-46.57486890408949L-81.84287308111246,-45.69871011573724M-83.24769208377714,-46.13679015936469L-19.148712610178006,-20.409582716540818" style="fill:none;stroke:rgb(0,0,0);stroke-width:1;stroke-linecap:round"></path><path d="M-103.8253369053226,-59.418431709413426L-101.0157017335221,-58.54227292106118L-27.32899978481181,-88.36122560161911z" style="fill:rgb(238,238,238); fill-opacity: 0.4"></path><path d="M-83.2476906670127,-24.75347107474932L-67.94324088133584,-30.543990627112166L-19.148713138345787,-20.409582421019604z" style="fill:rgb(255,187,187); fill-opacity: 0.4"></path><path d="M-103.8253369053226,47.46195658800862L-101.0157017335221,48.33811537636086L-101.0157017335221,-58.54227292106118z" style="fill:rgb(238,238,238); fill-opacity: 0.4"></path><path d="M-67.94324088133584,-51.92730906227621L-83.2476906670127,-46.13678950991336L-19.148713138345787,-20.409582421019604zM-83.2476906670127,-46.13678950991336L-83.2476906670127,-24.75347107474932L-19.148713138345787,-20.409582421019604z" style="fill:rgb(255,187,187); fill-opacity: 0.4"></path><path d="M29.41788434522043,-68.88961846916662L29.41788434522043,35.61375341414753L-45.37717668665392,-40.590511386560344zM165.74223088183106,78.12524226623441L29.41788434522043,35.61375341414753L29.41788434522043,-68.88961846916662zM-103.8253369053226,-59.418431709413426L-103.8253369053226,47.46195658800862L-101.0157017335221,-58.54227292106118zM29.41788434522043,35.61375341414753L-45.37717668665392,63.9128604967538L-45.37717668665392,-40.590511386560344zM-45.37717668665392,63.9128604967538L29.41788434522043,35.61375341414753L165.74223088183106,78.12524226623441z" style="fill:rgb(238,238,238); fill-opacity: 0.4"></path><path d="M-103.82533690532263,-59.418431709413426L-101.0157017335221,-58.54227292106118M-45.37717668665392,-40.590511386560344L-45.37717668665392,63.912860496753815M-45.37717668665392,63.912860496753815L90.9471698499567,106.42434934884066" style="fill:none;stroke:rgb(0,0,0);stroke-width:1;stroke-linecap:round"></path><path d="M165.74223088183106,-26.378129617079743L165.74223088183106,78.12524226623441L29.41788434522043,-68.88961846916662z" style="fill:rgb(238,238,238); fill-opacity: 0.4"></path><path d="M-45.37717668665392,-40.590511386560344L90.9471698499567,1.9209774655265248M165.74223088183103,-26.37812961707975L165.74223088183103,78.12524226623441M165.74223088183103,78.12524226623441L90.9471698499567,106.42434934884066" style="fill:none;stroke:rgb(0,0,0);stroke-width:1;stroke-linecap:round"></path><path d="M-45.37717668665392,-40.590511386560344L90.94716984995671,1.9209774655265304L29.41788434522043,-68.88961846916662zM90.94716984995671,106.42434934884069L-45.37717668665392,63.9128604967538L165.74223088183106,78.12524226623441zM90.94716984995671,1.9209774655265304L165.74223088183106,-26.378129617079743L29.41788434522043,-68.88961846916662zM-45.37717668665392,-40.590511386560344L-45.37717668665392,63.9128604967538L90.94716984995671,1.9209774655265304z" style="fill:rgb(238,238,238); fill-opacity: 0.4"></path><path d="M165.74223088183103,-26.37812961707975L90.9471698499567,1.9209774655265248" style="fill:none;stroke:rgb(0,0,0);stroke-width:1;stroke-linecap:round"></path><path d="M90.94716984995671,106.42434934884069L165.74223088183106,78.12524226623441L165.74223088183106,-26.378129617079743zM-45.37717668665392,63.9128604967538L90.94716984995671,106.42434934884069L90.94716984995671,1.9209774655265304z" style="fill:rgb(238,238,238); fill-opacity: 0.4"></path><path d="M218.78470658394033,183.77925680578585L201.25729025615763,178.31349384594424M201.25729025615763,-63.77568240062401L201.25729025615763,178.31349384594424M201.25729025615763,178.31349384594424L185.34493588398834,184.33401731503395M139.91804482994453,43.632150486021786L171.76057677701695,53.56195008734724" style="fill:none;stroke:rgb(0,0,0);stroke-width:1;stroke-linecap:round"></path><path d="M185.34493588398834,184.33401731503395L201.25729025615763,178.31349384594424L218.78470658394033,183.77925680578585z" style="fill:rgb(238,238,238); fill-opacity: 0.4"></path><path d="M218.78470658394033,-58.309919440782394L218.78470658394033,183.77925680578585M218.78470658394033,183.77925680578585L202.87235221177102,189.79978027487556" style="fill:none;stroke:rgb(0,0,0);stroke-width:1;stroke-linecap:round"></path><path d="M90.94716984995671,1.9209774655265304L90.94716984995671,106.42434934884069L165.74223088183106,-26.378129617079743z" style="fill:rgb(238,238,238); fill-opacity: 0.4"></path><path d="M185.34493588398834,-57.755158931534275L185.34493588398834,184.33401731503395M185.34493588398834,184.33401731503395L202.87235221177102,189.79978027487556M90.9471698499567,1.9209774655265248L90.9471698499567,106.42434934884066" style="fill:none;stroke:rgb(0,0,0);stroke-width:1;stroke-linecap:round"></path><path d="M202.87235221177102,189.79978027487556L185.34493588398834,184.33401731503395L218.78470658394033,183.77925680578585z" style="fill:rgb(238,238,238); fill-opacity: 0.4"></path><path d="M202.87235221177102,-52.28939597169267L202.87235221177102,189.79978027487556" style="fill:none;stroke:rgb(0,0,0);stroke-width:1;stroke-linecap:round"></path><path d="M218.78470658394033,183.77925680578585L201.25729025615763,178.31349384594424L201.25729025615763,-63.77568240062401z" style="fill:rgb(238,238,238); fill-opacity: 0.4"></path><path d="M165.69582800203412,58.60983361170003L171.76057677701695,62.47166610199892L190.49147792235368,59.40300867636221z" style="fill:rgb(0,0,0)"></path><path d="M201.25729025615763,178.31349384594424L185.34493588398834,184.33401731503395L185.34493588398834,-57.755158931534275z" style="fill:rgb(238,238,238); fill-opacity: 0.4"></path><path d="M175.50879750675725,44.93567919835236L168.0123560472766,47.7719974882716L190.49147792235368,59.40300867636221zM168.0123560472766,47.7719974882716L165.69582800203412,58.60983361170003L190.49147792235368,59.40300867636221z" style="fill:rgb(0,0,0)"></path><path d="M202.87235221177102,189.79978027487556L218.78470658394033,183.77925680578585L218.78470658394033,-58.30991944078238zM185.34493588398834,184.33401731503395L202.87235221177102,189.79978027487556L202.87235221177102,-52.289395971692656zM201.25729025615763,-63.77568240062401L201.25729025615763,178.31349384594424L185.34493588398834,-57.755158931534275zM218.78470658394033,-58.30991944078238L218.78470658394033,183.77925680578585L201.25729025615763,-63.77568240062401z" style="fill:rgb(238,238,238); fill-opacity: 0.4"></path><path d="M213.63816454557494,66.62108919788933L245.48069649264738,76.55088879921477" style="fill:none;stroke:rgb(0,0,0);stroke-width:1;stroke-linecap:round"></path><path d="M185.34493588398834,-57.755158931534275L185.34493588398834,184.33401731503395L202.87235221177102,-52.289395971692656zM202.87235221177102,-52.289395971692656L202.87235221177102,189.79978027487556L218.78470658394033,-58.30991944078238z" style="fill:rgb(238,238,238); fill-opacity: 0.4"></path><path d="M292.5048262995707,143.16666847148596L274.977409971788,137.70090551164435M274.977409971788,22.814783357410946L274.977409971788,137.70090551164435M274.977409971788,137.70090551164435L259.06505559961874,143.72142898073406M218.78470658394033,-58.309919440782394L201.25729025615763,-63.77568240062401M201.25729025615763,-63.77568240062401L185.34493588398834,-57.755158931534275" style="fill:none;stroke:rgb(0,0,0);stroke-width:1;stroke-linecap:round"></path><path d="M259.06505559961874,143.72142898073406L274.977409971788,137.70090551164435L292.5048262995707,143.16666847148596z" style="fill:rgb(238,238,238); fill-opacity: 0.4"></path><path d="M292.5048262995707,28.280546317252554L292.5048262995707,143.16666847148596M292.5048262995707,143.16666847148596L276.5924719274014,149.18719194057567M259.06505559961874,28.835306826500673L259.06505559961874,143.72142898073406M259.06505559961874,143.72142898073406L276.5924719274014,149.18719194057567" style="fill:none;stroke:rgb(0,0,0);stroke-width:1;stroke-linecap:round"></path><path d="M239.41594771766458,81.59877232356757L245.48069649264738,85.46060481386647L264.21159763798414,82.39194738822975z" style="fill:rgb(0,0,0)"></path><path d="M218.78470658394033,-58.309919440782394L202.87235221177102,-52.28939597169267" style="fill:none;stroke:rgb(0,0,0);stroke-width:1;stroke-linecap:round"></path><path d="M202.87235221177102,-52.289395971692656L218.78470658394033,-58.30991944078238L201.25729025615763,-63.77568240062401z" style="fill:rgb(238,238,238); fill-opacity: 0.4"></path><path d="M249.22891722238768,67.92461791021991L241.7324757629071,70.76093620013916L264.21159763798414,82.39194738822975z" style="fill:rgb(0,0,0)"></path><path d="M185.34493588398834,-57.755158931534275L202.87235221177102,-52.289395971692656L201.25729025615763,-63.77568240062401z" style="fill:rgb(238,238,238); fill-opacity: 0.4"></path><path d="M185.34493588398834,-57.755158931534275L202.87235221177102,-52.28939597169267" style="fill:none;stroke:rgb(0,0,0);stroke-width:1;stroke-linecap:round"></path><path d="M292.5048262995707,143.16666847148596L274.977409971788,137.70090551164435L274.977409971788,22.814783357410946z" style="fill:rgb(238,238,238); fill-opacity: 0.4"></path><path d="M241.7324757629071,70.76093620013916L239.41594771766458,81.59877232356757L264.21159763798414,82.39194738822975z" style="fill:rgb(0,0,0)"></path><path d="M276.5924719274014,149.18719194057567L259.06505559961874,143.72142898073406L292.5048262995707,143.16666847148596zM274.977409971788,137.70090551164435L259.06505559961874,143.72142898073406L259.06505559961874,28.835306826500673z" style="fill:rgb(238,238,238); fill-opacity: 0.4"></path><path d="M276.5924719274014,34.30106978634228L276.5924719274014,149.18719194057567" style="fill:none;stroke:rgb(0,0,0);stroke-width:1;stroke-linecap:round"></path><path d="M274.977409971788,22.814783357410946L274.977409971788,137.70090551164435L259.06505559961874,28.835306826500673zM276.5924719274014,149.18719194057567L292.5048262995707,143.16666847148596L292.5048262995707,28.280546317252554zM292.5048262995707,28.280546317252554L292.5048262995707,143.16666847148596L274.977409971788,22.814783357410946zM259.06505559961874,143.72142898073406L276.5924719274014,149.18719194057567L276.5924719274014,34.30106978634228z" style="fill:rgb(238,238,238); fill-opacity: 0.4"></path><path d="M292.5048262995707,28.280546317252554L274.977409971788,22.814783357410946M274.977409971788,22.814783357410946L259.06505559961874,28.835306826500673" style="fill:none;stroke:rgb(0,0,0);stroke-width:1;stroke-linecap:round"></path><path d="M259.06505559961874,28.835306826500673L259.06505559961874,143.72142898073406L276.5924719274014,34.30106978634228zM276.5924719274014,34.30106978634228L276.5924719274014,149.18719194057567L292.5048262995707,28.280546317252554z" style="fill:rgb(238,238,238); fill-opacity: 0.4"></path><path d="M292.5048262995707,28.280546317252554L276.5924719274014,34.30106978634228" style="fill:none;stroke:rgb(0,0,0);stroke-width:1;stroke-linecap:round"></path><path d="M276.5924719274014,34.30106978634228L292.5048262995707,28.280546317252554L274.977409971788,22.814783357410946zM259.06505559961874,28.835306826500673L276.5924719274014,34.30106978634228L274.977409971788,22.814783357410946z" style="fill:rgb(238,238,238); fill-opacity: 0.4"></path><path d="M259.06505559961874,28.835306826500673L276.5924719274014,34.30106978634228" style="fill:none;stroke:rgb(0,0,0);stroke-width:1;stroke-linecap:round"></path></svg>